<svg xmlns="http://www.w3.org/2000/svg" width="60" height="27.053" viewBox="0 0 60 27.053">
  <path id="arrow-left" d="M34.439,62.891l-2.973,1.375a6.117,6.117,0,0,1-4.54,0L.894,52.23c-1.259-.582-1.259-1.524,0-2.1L26.927,38.087a6.117,6.117,0,0,1,4.54,0l2.973,1.375c1.272.589,1.245,1.549-.054,2.125L18.249,48.7H56.736c1.781,0,3.214.663,3.214,1.487v1.982c0,.824-1.433,1.487-3.214,1.487H18.249l16.137,7.112C35.7,61.343,35.725,62.3,34.439,62.891Z" transform="translate(0.05 -37.65)" fill="#025245"/>
</svg>
