<svg xmlns="http://www.w3.org/2000/svg" width="60" height="52.5" viewBox="0 0 60 52.5">
  <path id="briefcase" d="M37.5,67.625A1.874,1.874,0,0,1,35.625,69.5H24.375A1.874,1.874,0,0,1,22.5,67.625V62H0V78.875A5.767,5.767,0,0,0,5.625,84.5h48.75A5.767,5.767,0,0,0,60,78.875V62H37.5ZM54.375,43.25H45V37.625A5.767,5.767,0,0,0,39.375,32H20.625A5.767,5.767,0,0,0,15,37.625V43.25H5.625A5.767,5.767,0,0,0,0,48.875V58.25H60V48.875A5.767,5.767,0,0,0,54.375,43.25Zm-16.875,0h-15V39.5h15Z" transform="translate(0 -32)" fill="#025245"/>
</svg>
