<svg xmlns="http://www.w3.org/2000/svg" width="120" height="78" viewBox="0 0 120 78">
  <g id="Group_2" data-name="Group 2" transform="translate(-829 -442)">
    <path id="calendar-alt" d="M0,51.786a5.359,5.359,0,0,0,5.357,5.357H44.643A5.359,5.359,0,0,0,50,51.786V21.429H0ZM35.714,29.911a1.343,1.343,0,0,1,1.339-1.339h4.464a1.343,1.343,0,0,1,1.339,1.339v4.464a1.343,1.343,0,0,1-1.339,1.339H37.054a1.343,1.343,0,0,1-1.339-1.339Zm0,14.286a1.343,1.343,0,0,1,1.339-1.339h4.464A1.343,1.343,0,0,1,42.857,44.2v4.464A1.343,1.343,0,0,1,41.518,50H37.054a1.343,1.343,0,0,1-1.339-1.339ZM21.429,29.911a1.343,1.343,0,0,1,1.339-1.339h4.464a1.343,1.343,0,0,1,1.339,1.339v4.464a1.343,1.343,0,0,1-1.339,1.339H22.768a1.343,1.343,0,0,1-1.339-1.339Zm0,14.286a1.343,1.343,0,0,1,1.339-1.339h4.464A1.343,1.343,0,0,1,28.571,44.2v4.464A1.343,1.343,0,0,1,27.232,50H22.768a1.343,1.343,0,0,1-1.339-1.339ZM7.143,29.911a1.343,1.343,0,0,1,1.339-1.339h4.464a1.343,1.343,0,0,1,1.339,1.339v4.464a1.343,1.343,0,0,1-1.339,1.339H8.482a1.343,1.343,0,0,1-1.339-1.339Zm0,14.286a1.343,1.343,0,0,1,1.339-1.339h4.464A1.343,1.343,0,0,1,14.286,44.2v4.464A1.343,1.343,0,0,1,12.946,50H8.482a1.343,1.343,0,0,1-1.339-1.339Zm37.5-37.054H39.286V1.786A1.791,1.791,0,0,0,37.5,0H33.929a1.791,1.791,0,0,0-1.786,1.786V7.143H17.857V1.786A1.791,1.791,0,0,0,16.071,0H12.5a1.791,1.791,0,0,0-1.786,1.786V7.143H5.357A5.359,5.359,0,0,0,0,12.5v5.357H50V12.5A5.359,5.359,0,0,0,44.643,7.143Z" transform="translate(891 448.857)" fill="#f28e43"/>
    <g id="Rectangle_86" data-name="Rectangle 86" transform="translate(829 442)" fill="none" stroke="#f28e43" stroke-width="3">
      <rect width="120" height="78" rx="10" stroke="none"/>
      <rect x="1.5" y="1.5" width="117" height="75" rx="8.5" fill="none"/>
    </g>
    <path id="caret-square-down" d="M30,35.214V58.786A3.215,3.215,0,0,1,26.786,62H3.214A3.215,3.215,0,0,1,0,58.786V35.214A3.215,3.215,0,0,1,3.214,32H26.786A3.215,3.215,0,0,1,30,35.214ZM6.194,44.623l8.237,8.237a.8.8,0,0,0,1.138,0l8.237-8.237a.8.8,0,0,0-.569-1.373H6.763A.8.8,0,0,0,6.194,44.623Z" transform="translate(845 434)" fill="#f28e43"/>
  </g>
</svg>
