<svg xmlns="http://www.w3.org/2000/svg" width="70" height="70" viewBox="0 0 70 70">
  <path id="download" d="M29.531,0H40.469A3.273,3.273,0,0,1,43.75,3.281V26.25H55.74a2.729,2.729,0,0,1,1.928,4.662L36.873,51.721a2.649,2.649,0,0,1-3.732,0L12.318,30.912a2.729,2.729,0,0,1,1.928-4.662h12V3.281A3.273,3.273,0,0,1,29.531,0ZM70,51.406V66.719A3.273,3.273,0,0,1,66.719,70H3.281A3.273,3.273,0,0,1,0,66.719V51.406a3.273,3.273,0,0,1,3.281-3.281H23.338l6.7,6.7a7.006,7.006,0,0,0,9.926,0l6.7-6.7H66.719A3.273,3.273,0,0,1,70,51.406ZM53.047,63.438a2.734,2.734,0,1,0-2.734,2.734A2.742,2.742,0,0,0,53.047,63.438Zm8.75,0a2.734,2.734,0,1,0-2.734,2.734A2.742,2.742,0,0,0,61.8,63.438Z" fill="#fff"/>
</svg>
