<svg xmlns="http://www.w3.org/2000/svg" width="50" height="37.5" viewBox="0 0 50 37.5">
  <path id="envelope" d="M49.053,76.383a.588.588,0,0,1,.947.459V96.813a4.689,4.689,0,0,1-4.687,4.688H4.688A4.689,4.689,0,0,1,0,96.813V76.852a.584.584,0,0,1,.947-.459C3.135,78.092,6.035,80.25,16,87.486c2.061,1.5,5.537,4.668,9,4.648,3.486.029,7.031-3.2,9.014-4.648C43.975,80.25,46.865,78.082,49.053,76.383ZM25,89c2.266.039,5.527-2.852,7.168-4.043,12.959-9.4,13.945-10.225,16.934-12.568a2.337,2.337,0,0,0,.9-1.846V68.688A4.689,4.689,0,0,0,45.313,64H4.688A4.689,4.689,0,0,0,0,68.688v1.855a2.351,2.351,0,0,0,.9,1.846c2.988,2.334,3.975,3.164,16.934,12.568C19.473,86.148,22.734,89.039,25,89Z" transform="translate(0 -64)" fill="#fff"/>
</svg>
