<svg xmlns="http://www.w3.org/2000/svg" width="30" height="30" viewBox="0 0 30 30">
  <path id="plus-square" d="M26.786,32H3.214A3.215,3.215,0,0,0,0,35.214V58.786A3.215,3.215,0,0,0,3.214,62H26.786A3.215,3.215,0,0,0,30,58.786V35.214A3.215,3.215,0,0,0,26.786,32ZM24.643,48.875a.806.806,0,0,1-.8.8H17.679v6.161a.806.806,0,0,1-.8.8h-3.75a.806.806,0,0,1-.8-.8V49.679H6.161a.806.806,0,0,1-.8-.8v-3.75a.806.806,0,0,1,.8-.8h6.161V38.161a.806.806,0,0,1,.8-.8h3.75a.806.806,0,0,1,.8.8v6.161h6.161a.806.806,0,0,1,.8.8Z" transform="translate(0 -32)" fill="#fefefe"/>
</svg>
