<svg xmlns="http://www.w3.org/2000/svg" xmlns:xlink="http://www.w3.org/1999/xlink" width="185" height="28.714" viewBox="0 0 185 28.714">
  <defs>
    <clipPath id="clip-path">
      <rect width="185" height="28.714" fill="none"/>
    </clipPath>
  </defs>
  <g id="Repeat_Grid_10" data-name="Repeat Grid 10" clip-path="url(#clip-path)">
    <g transform="translate(-838 -951)">
      <path id="star" d="M33.89.986,30.229,8.41,22.036,9.6a1.8,1.8,0,0,0-.993,3.062l5.927,5.776-1.4,8.159a1.793,1.793,0,0,0,2.6,1.89L35.5,24.638l7.329,3.852a1.8,1.8,0,0,0,2.6-1.89l-1.4-8.159,5.927-5.776A1.8,1.8,0,0,0,48.963,9.6L40.771,8.41,37.109.986A1.8,1.8,0,0,0,33.89.986Z" transform="translate(817.5 951.013)" fill="#969696"/>
    </g>
    <g transform="translate(-803 -951)">
      <path id="star-2" data-name="star" d="M33.89.986,30.229,8.41,22.036,9.6a1.8,1.8,0,0,0-.993,3.062l5.927,5.776-1.4,8.159a1.793,1.793,0,0,0,2.6,1.89L35.5,24.638l7.329,3.852a1.8,1.8,0,0,0,2.6-1.89l-1.4-8.159,5.927-5.776A1.8,1.8,0,0,0,48.963,9.6L40.771,8.41,37.109.986A1.8,1.8,0,0,0,33.89.986Z" transform="translate(817.5 951.013)" fill="#969696"/>
    </g>
    <g transform="translate(-768 -951)">
      <path id="star-3" data-name="star" d="M33.89.986,30.229,8.41,22.036,9.6a1.8,1.8,0,0,0-.993,3.062l5.927,5.776-1.4,8.159a1.793,1.793,0,0,0,2.6,1.89L35.5,24.638l7.329,3.852a1.8,1.8,0,0,0,2.6-1.89l-1.4-8.159,5.927-5.776A1.8,1.8,0,0,0,48.963,9.6L40.771,8.41,37.109.986A1.8,1.8,0,0,0,33.89.986Z" transform="translate(817.5 951.013)" fill="#969696"/>
    </g>
    <g transform="translate(-733 -951)">
      <path id="star-4" data-name="star" d="M33.89.986,30.229,8.41,22.036,9.6a1.8,1.8,0,0,0-.993,3.062l5.927,5.776-1.4,8.159a1.793,1.793,0,0,0,2.6,1.89L35.5,24.638l7.329,3.852a1.8,1.8,0,0,0,2.6-1.89l-1.4-8.159,5.927-5.776A1.8,1.8,0,0,0,48.963,9.6L40.771,8.41,37.109.986A1.8,1.8,0,0,0,33.89.986Z" transform="translate(817.5 951.013)" fill="#969696"/>
    </g>
    <g transform="translate(-698 -951)">
      <path id="star-5" data-name="star" d="M33.89.986,30.229,8.41,22.036,9.6a1.8,1.8,0,0,0-.993,3.062l5.927,5.776-1.4,8.159a1.793,1.793,0,0,0,2.6,1.89L35.5,24.638l7.329,3.852a1.8,1.8,0,0,0,2.6-1.89l-1.4-8.159,5.927-5.776A1.8,1.8,0,0,0,48.963,9.6L40.771,8.41,37.109.986A1.8,1.8,0,0,0,33.89.986Z" transform="translate(817.5 951.013)" fill="#969696"/>
    </g>
  </g>
</svg>
