<svg xmlns="http://www.w3.org/2000/svg" xmlns:xlink="http://www.w3.org/1999/xlink" width="91" height="19.143" viewBox="0 0 91 19.143">
  <defs>
    <clipPath id="clip-path">
      <rect width="91" height="19.143" fill="none"/>
    </clipPath>
  </defs>
  <g id="Repeat_Grid_23" data-name="Repeat Grid 23" clip-path="url(#clip-path)">
    <g transform="translate(-507 -3701)">
      <path id="star" d="M29.427.653,26.986,5.6l-5.462.8a1.2,1.2,0,0,0-.662,2.041l3.951,3.85-.935,5.439a1.2,1.2,0,0,0,1.735,1.26L30.5,16.421l4.886,2.568a1.2,1.2,0,0,0,1.735-1.26l-.935-5.439,3.951-3.85A1.2,1.2,0,0,0,39.475,6.4l-5.462-.8L31.572.653a1.2,1.2,0,0,0-2.146,0Z" transform="translate(486.5 3701.013)" fill="#025245"/>
    </g>
    <g transform="translate(-487 -3701)">
      <path id="star-2" data-name="star" d="M29.427.653,26.986,5.6l-5.462.8a1.2,1.2,0,0,0-.662,2.041l3.951,3.85-.935,5.439a1.2,1.2,0,0,0,1.735,1.26L30.5,16.421l4.886,2.568a1.2,1.2,0,0,0,1.735-1.26l-.935-5.439,3.951-3.85A1.2,1.2,0,0,0,39.475,6.4l-5.462-.8L31.572.653a1.2,1.2,0,0,0-2.146,0Z" transform="translate(486.5 3701.013)" fill="#025245"/>
    </g>
    <g transform="translate(-467 -3701)">
      <path id="star-3" data-name="star" d="M29.427.653,26.986,5.6l-5.462.8a1.2,1.2,0,0,0-.662,2.041l3.951,3.85-.935,5.439a1.2,1.2,0,0,0,1.735,1.26L30.5,16.421l4.886,2.568a1.2,1.2,0,0,0,1.735-1.26l-.935-5.439,3.951-3.85A1.2,1.2,0,0,0,39.475,6.4l-5.462-.8L31.572.653a1.2,1.2,0,0,0-2.146,0Z" transform="translate(486.5 3701.013)" fill="#025245"/>
    </g>
    <g transform="translate(-447 -3701)">
      <path id="star-4" data-name="star" d="M29.427.653,26.986,5.6l-5.462.8a1.2,1.2,0,0,0-.662,2.041l3.951,3.85-.935,5.439a1.2,1.2,0,0,0,1.735,1.26L30.5,16.421l4.886,2.568a1.2,1.2,0,0,0,1.735-1.26l-.935-5.439,3.951-3.85A1.2,1.2,0,0,0,39.475,6.4l-5.462-.8L31.572.653a1.2,1.2,0,0,0-2.146,0Z" transform="translate(486.5 3701.013)" fill="#025245"/>
    </g>
    <g transform="translate(-427 -3701)">
      <path id="star-5" data-name="star" d="M29.427.653,26.986,5.6l-5.462.8a1.2,1.2,0,0,0-.662,2.041l3.951,3.85-.935,5.439a1.2,1.2,0,0,0,1.735,1.26L30.5,16.421l4.886,2.568a1.2,1.2,0,0,0,1.735-1.26l-.935-5.439,3.951-3.85A1.2,1.2,0,0,0,39.475,6.4l-5.462-.8L31.572.653a1.2,1.2,0,0,0-2.146,0Z" transform="translate(486.5 3701.013)" fill="#025245"/>
    </g>
  </g>
</svg>
