<svg xmlns="http://www.w3.org/2000/svg" xmlns:xlink="http://www.w3.org/1999/xlink" width="107" height="19.143" viewBox="0 0 107 19.143">
  <defs>
    <clipPath id="clip-path">
      <rect width="98" height="19.143" fill="none"/>
    </clipPath>
  </defs>
  <g id="Group_2" data-name="Group 2" transform="translate(-350 -1071)">
    <g id="Repeat_Grid_13" data-name="Repeat Grid 13" transform="translate(350 1071)" clip-path="url(#clip-path)">
      <g transform="translate(-350 -1071)">
        <path id="star" d="M29.427.653,26.986,5.6l-5.462.8a1.2,1.2,0,0,0-.662,2.041l3.951,3.85-.935,5.439a1.2,1.2,0,0,0,1.735,1.26L30.5,16.421l4.886,2.568a1.2,1.2,0,0,0,1.735-1.26l-.935-5.439,3.951-3.85A1.2,1.2,0,0,0,39.475,6.4l-5.462-.8L31.572.653a1.2,1.2,0,0,0-2.146,0Z" transform="translate(329.5 1071.013)"/>
        <path id="star-2" data-name="star" d="M29.427.653,26.986,5.6l-5.462.8a1.2,1.2,0,0,0-.662,2.041l3.951,3.85-.935,5.439a1.2,1.2,0,0,0,1.735,1.26L30.5,16.421l4.886,2.568a1.2,1.2,0,0,0,1.735-1.26l-.935-5.439,3.951-3.85A1.2,1.2,0,0,0,39.475,6.4l-5.462-.8L31.572.653a1.2,1.2,0,0,0-2.146,0Z" transform="translate(354.5 1071.013)"/>
      </g>
      <g transform="translate(-300 -1071)">
        <path id="star-3" data-name="star" d="M29.427.653,26.986,5.6l-5.462.8a1.2,1.2,0,0,0-.662,2.041l3.951,3.85-.935,5.439a1.2,1.2,0,0,0,1.735,1.26L30.5,16.421l4.886,2.568a1.2,1.2,0,0,0,1.735-1.26l-.935-5.439,3.951-3.85A1.2,1.2,0,0,0,39.475,6.4l-5.462-.8L31.572.653a1.2,1.2,0,0,0-2.146,0Z" transform="translate(329.5 1071.013)"/>
        <path id="star-4" data-name="star" d="M29.427.653,26.986,5.6l-5.462.8a1.2,1.2,0,0,0-.662,2.041l3.951,3.85-.935,5.439a1.2,1.2,0,0,0,1.735,1.26L30.5,16.421l4.886,2.568a1.2,1.2,0,0,0,1.735-1.26l-.935-5.439,3.951-3.85A1.2,1.2,0,0,0,39.475,6.4l-5.462-.8L31.572.653a1.2,1.2,0,0,0-2.146,0Z" transform="translate(354.5 1071.013)"/>
      </g>
    </g>
    <path id="star-half" d="M30.5,0a1.182,1.182,0,0,0-1.073.665l-2.441,4.95-5.462.793a1.2,1.2,0,0,0-.662,2.041l3.951,3.85-.935,5.439A1.2,1.2,0,0,0,25.614,19L30.5,16.434Z" transform="translate(426.5 1071)"/>
  </g>
</svg>
