<svg xmlns="http://www.w3.org/2000/svg" xmlns:xlink="http://www.w3.org/1999/xlink" width="125.75" height="23.928" viewBox="0 0 125.75 23.928">
  <defs>
    <clipPath id="clip-path">
      <rect width="125.75" height="23.928" fill="none"/>
    </clipPath>
  </defs>
  <g id="Repeat_Grid_30" data-name="Repeat Grid 30" clip-path="url(#clip-path)">
    <g transform="translate(-1045.5 -4914.144)">
      <path id="star" d="M31.658.82,28.607,7.007,21.78,8a1.5,1.5,0,0,0-.827,2.551l4.939,4.813-1.168,6.8a1.494,1.494,0,0,0,2.168,1.575L33,20.53l6.107,3.21a1.5,1.5,0,0,0,2.168-1.575l-1.168-6.8,4.939-4.813A1.5,1.5,0,0,0,44.219,8l-6.827-1L34.341.82A1.5,1.5,0,0,0,31.658.82Z" transform="translate(1025 4914.156)" fill="#025245"/>
    </g>
    <g transform="translate(-1020.5 -4914.144)">
      <path id="star-2" data-name="star" d="M31.658.82,28.607,7.007,21.78,8a1.5,1.5,0,0,0-.827,2.551l4.939,4.813-1.168,6.8a1.494,1.494,0,0,0,2.168,1.575L33,20.53l6.107,3.21a1.5,1.5,0,0,0,2.168-1.575l-1.168-6.8,4.939-4.813A1.5,1.5,0,0,0,44.219,8l-6.827-1L34.341.82A1.5,1.5,0,0,0,31.658.82Z" transform="translate(1025 4914.156)" fill="#025245"/>
    </g>
    <g transform="translate(-995.5 -4914.144)">
      <path id="star-3" data-name="star" d="M31.658.82,28.607,7.007,21.78,8a1.5,1.5,0,0,0-.827,2.551l4.939,4.813-1.168,6.8a1.494,1.494,0,0,0,2.168,1.575L33,20.53l6.107,3.21a1.5,1.5,0,0,0,2.168-1.575l-1.168-6.8,4.939-4.813A1.5,1.5,0,0,0,44.219,8l-6.827-1L34.341.82A1.5,1.5,0,0,0,31.658.82Z" transform="translate(1025 4914.156)" fill="#025245"/>
    </g>
    <g transform="translate(-970.5 -4914.144)">
      <path id="star-4" data-name="star" d="M31.658.82,28.607,7.007,21.78,8a1.5,1.5,0,0,0-.827,2.551l4.939,4.813-1.168,6.8a1.494,1.494,0,0,0,2.168,1.575L33,20.53l6.107,3.21a1.5,1.5,0,0,0,2.168-1.575l-1.168-6.8,4.939-4.813A1.5,1.5,0,0,0,44.219,8l-6.827-1L34.341.82A1.5,1.5,0,0,0,31.658.82Z" transform="translate(1025 4914.156)" fill="#025245"/>
    </g>
    <g transform="translate(-945.5 -4914.144)">
      <path id="star-5" data-name="star" d="M31.658.82,28.607,7.007,21.78,8a1.5,1.5,0,0,0-.827,2.551l4.939,4.813-1.168,6.8a1.494,1.494,0,0,0,2.168,1.575L33,20.53l6.107,3.21a1.5,1.5,0,0,0,2.168-1.575l-1.168-6.8,4.939-4.813A1.5,1.5,0,0,0,44.219,8l-6.827-1L34.341.82A1.5,1.5,0,0,0,31.658.82Z" transform="translate(1025 4914.156)" fill="#025245"/>
    </g>
    <g transform="translate(-920.5 -4914.144)">
      <path id="star-6" data-name="star" d="M31.658.82,28.607,7.007,21.78,8a1.5,1.5,0,0,0-.827,2.551l4.939,4.813-1.168,6.8a1.494,1.494,0,0,0,2.168,1.575L33,20.53l6.107,3.21a1.5,1.5,0,0,0,2.168-1.575l-1.168-6.8,4.939-4.813A1.5,1.5,0,0,0,44.219,8l-6.827-1L34.341.82A1.5,1.5,0,0,0,31.658.82Z" transform="translate(1025 4914.156)" fill="#025245"/>
    </g>
  </g>
</svg>
