<svg xmlns="http://www.w3.org/2000/svg" width="60" height="48.731" viewBox="0 0 60 48.731">
  <path id="twitter" d="M53.833,60.227c.038.533.038,1.066.038,1.6,0,16.256-12.373,34.987-34.987,34.987A34.75,34.75,0,0,1,0,91.293a25.439,25.439,0,0,0,2.97.152,24.627,24.627,0,0,0,15.267-5.254,12.319,12.319,0,0,1-11.5-8.528,15.508,15.508,0,0,0,2.322.19,13.006,13.006,0,0,0,3.236-.419A12.3,12.3,0,0,1,2.436,65.366v-.152a12.384,12.384,0,0,0,5.558,1.561A12.315,12.315,0,0,1,4.188,50.328,34.954,34.954,0,0,0,29.543,63.2a13.882,13.882,0,0,1-.3-2.817A12.309,12.309,0,0,1,50.52,51.965a24.21,24.21,0,0,0,7.8-2.97,12.264,12.264,0,0,1-5.406,6.777A24.652,24.652,0,0,0,60,53.869a26.434,26.434,0,0,1-6.167,6.358Z" transform="translate(0 -48.082)" fill="#fff"/>
</svg>
