<svg xmlns="http://www.w3.org/2000/svg" width="40" height="39.994" viewBox="0 0 40 39.994">
  <path id="upload" d="M23.125,30.069h-6.25A1.871,1.871,0,0,1,15,28.194V15.069H8.148a1.56,1.56,0,0,1-1.1-2.664L18.93.514a1.514,1.514,0,0,1,2.133,0L32.953,12.405a1.56,1.56,0,0,1-1.1,2.664H25V28.194A1.871,1.871,0,0,1,23.125,30.069ZM40,29.444v8.75a1.871,1.871,0,0,1-1.875,1.875H1.875A1.871,1.871,0,0,1,0,38.194v-8.75a1.871,1.871,0,0,1,1.875-1.875H12.5v.625a4.378,4.378,0,0,0,4.375,4.375h6.25A4.378,4.378,0,0,0,27.5,28.194v-.625H38.125A1.871,1.871,0,0,1,40,29.444Zm-9.687,6.875a1.563,1.563,0,1,0-1.562,1.563A1.567,1.567,0,0,0,30.313,36.319Zm5,0a1.563,1.563,0,1,0-1.562,1.563A1.567,1.567,0,0,0,35.313,36.319Z" transform="translate(0 -0.075)" fill="#fff"/>
</svg>
