<svg xmlns="http://www.w3.org/2000/svg" width="50" height="57.143" viewBox="0 0 50 57.143">
  <path id="user" d="M35,33.929c-3.2,0-4.743,1.786-10,1.786s-6.786-1.786-10-1.786a15,15,0,0,0-15,15v2.857a5.359,5.359,0,0,0,5.357,5.357H44.643A5.359,5.359,0,0,0,50,51.786V48.929A15,15,0,0,0,35,33.929Zm9.643,17.857H5.357V48.929A9.66,9.66,0,0,1,15,39.286c1.629,0,4.275,1.786,10,1.786,5.77,0,8.359-1.786,10-1.786a9.66,9.66,0,0,1,9.643,9.643ZM25,32.143A16.071,16.071,0,1,0,8.929,16.071,16.076,16.076,0,0,0,25,32.143ZM25,5.357A10.714,10.714,0,1,1,14.286,16.071,10.731,10.731,0,0,1,25,5.357Z" fill="#fff"/>
</svg>
